<?xml version="1.0" encoding="utf-8"?>
<!-- Generator: Adobe Illustrator 18.1.1, SVG Export Plug-In . SVG Version: 6.00 Build 0)  -->
<svg version="1.1" id="Layer_1" xmlns="http://www.w3.org/2000/svg" xmlns:xlink="http://www.w3.org/1999/xlink" x="0px" y="0px"
	 viewBox="0 0 500 500" enable-background="new 0 0 500 500" xml:space="preserve">
<path fill="#FFFFFF" d="M500,94.9c-18.4,8.1-38.1,13.7-58.9,16.2c21.2-12.7,37.4-32.8,45.1-56.7c-19.8,11.7-41.8,20.2-65.2,24.8
	c-18.7-19.9-45.3-32.4-74.9-32.4c-56.6,0-102.6,45.9-102.6,102.5c0,8.1,0.9,15.9,2.7,23.4C161,168.4,85.4,127.6,34.8,65.6
	c-8.9,15.1-13.9,32.7-13.9,51.6c0,35.6,18.1,67,45.6,85.4c-16.8-0.5-32.7-5.2-46.5-12.8v1.3c0,49.7,35.3,91.2,82.3,100.6
	c-8.6,2.3-17.7,3.6-27,3.6c-6.6,0-13-0.6-19.3-1.8c13.1,40.8,50.9,70.4,95.8,71.3c-35.1,27.5-79.4,43.9-127.4,43.9
	c-8.3,0-16.4-0.5-24.5-1.4c45.4,29.1,99.3,46.1,157.3,46.1c188.7,0,291.9-156.3,291.9-291.8c0-4.5-0.1-8.9-0.3-13.3
	C468.8,133.6,486.3,115.6,500,94.9L500,94.9z"/>
</svg>
