<?xml version="1.0" encoding="utf-8"?>
<!-- Generator: Adobe Illustrator 18.1.1, SVG Export Plug-In . SVG Version: 6.00 Build 0)  -->
<svg version="1.1" id="Layer_1" xmlns="http://www.w3.org/2000/svg" xmlns:xlink="http://www.w3.org/1999/xlink" x="0px" y="0px"
	 viewBox="0 0 612 792" enable-background="new 0 0 612 792" xml:space="preserve">
<path d="M547.4,264c21.4,39.2,33.7,84.1,33.7,132c0,101.5-55,190.1-136.8,237.8l84-243c15.7-39.2,20.9-70.6,20.9-98.5
	C549.3,282.1,548.6,272.7,547.4,264 M343.9,266.9c16.5-0.8,31.4-2.6,31.4-2.6c14.8-1.8,13.1-23.6-1.7-22.7c0,0-44.6,3.5-73.4,3.5
	c-27,0-72.4-3.5-72.4-3.5c-14.8-0.8-16.6,21.8-1.8,22.7c0,0,14.1,1.7,28.9,2.6l42.8,117.4l-60.2,180.5l-100.2-298
	c16.6-0.8,31.5-2.6,31.5-2.6c14.8-1.8,13.1-23.6-1.8-22.7c0,0-44.6,3.5-73.3,3.5c-5.2,0-11.2-0.2-17.7-0.4
	C125.3,170.3,209.9,121,306,121c71.6,0,136.8,27.3,185.8,72.2c-1.1-0.1-2.3-0.2-3.6-0.2c-27,0-46.2,23.5-46.2,48.8
	c0,22.7,13.1,41.9,27,64.5c10.5,18.4,22.7,41.9,22.7,75.9c0,23.5-9.1,50.9-21,88.9l-27.4,91.7L343.9,266.9L343.9,266.9z M306,671.1
	c-27,0-53.1-4-77.7-11.2l82.5-239.8l84.5,231.6c0.6,1.3,1.3,2.6,2,3.8C368.8,665.6,338.1,671.1,306,671.1 M30.9,396
	c0-39.9,8.6-77.8,23.8-112l131.2,359.5C94.2,599,30.9,504.9,30.9,396 M306,90C137.3,90,0,227.3,0,396s137.3,306,306,306
	s306-137.3,306-306S474.7,90,306,90"/>
</svg>
