<?xml version="1.0" encoding="utf-8"?>
<!-- Generator: Adobe Illustrator 18.1.1, SVG Export Plug-In . SVG Version: 6.00 Build 0)  -->
<svg version="1.1" xmlns="http://www.w3.org/2000/svg" xmlns:xlink="http://www.w3.org/1999/xlink" x="0px" y="0px"
	 viewBox="0 0 44.1 42.6" enable-background="new 0 0 44.1 42.6" xml:space="preserve">
<g id="Layer_2">
	<rect x="-722.5" y="-415.4" fill="#FFFFFF" width="829.5" height="834"/>
</g>
<g id="Capa_1">
	<g>
		<g>
			<path fill="#2D2D2D" d="M8.2,2.7c-2.4,0-4.4,2-4.4,4.4c0,2.4,2,4.4,4.4,4.4c2.4,0,4.4-2,4.4-4.4C12.6,4.7,10.6,2.7,8.2,2.7z"/>
			<rect x="4.4" y="14.9" fill="#2D2D2D" width="7.6" height="24.5"/>
			<path fill="#2D2D2D" d="M31.4,14.3c-3.7,0-6.2,2-7.2,4h-0.1v-3.4h-7.3h0v24.5h7.6V27.3c0-3.2,0.6-6.3,4.6-6.3c3.9,0,4,3.7,4,6.5
				v11.9h7.6V26C40.6,19.4,39.1,14.3,31.4,14.3z"/>
		</g>
	</g>
</g>
</svg>
