<?xml version="1.0" encoding="utf-8"?>
<!-- Generator: Adobe Illustrator 18.1.1, SVG Export Plug-In . SVG Version: 6.00 Build 0)  -->
<svg version="1.1" xmlns="http://www.w3.org/2000/svg" xmlns:xlink="http://www.w3.org/1999/xlink" x="0px" y="0px"
	 viewBox="0 0 44.1 42.6" enable-background="new 0 0 44.1 42.6" xml:space="preserve">
<g id="Layer_2">
	<rect x="-428.5" y="-355" fill="#FFFFFF" width="829.5" height="834"/>
</g>
<g id="Capa_1">
	<g>
		<path fill="#2D2D2D" d="M22.4,1.6c-10.9,0-19.8,8.9-19.8,19.8c0,10.9,8.9,19.8,19.8,19.8c10.9,0,19.8-8.9,19.8-19.8
			C42.2,10.4,33.3,1.6,22.4,1.6z M4.6,21.3c0-2.6,0.6-5,1.5-7.2l8.5,23.2C8.7,34.4,4.6,28.4,4.6,21.3z M22.4,39.1
			c-1.7,0-3.4-0.3-5-0.7l5.3-15.5l5.5,15c0,0.1,0.1,0.2,0.1,0.2C26.5,38.7,24.5,39.1,22.4,39.1z M24.9,13c1.1-0.1,2-0.2,2-0.2
			c1-0.1,0.8-1.5-0.1-1.5c0,0-2.9,0.2-4.7,0.2c-1.7,0-4.7-0.2-4.7-0.2c-1-0.1-1.1,1.4-0.1,1.5c0,0,0.9,0.1,1.9,0.2l2.8,7.6L18,32.2
			L11.5,13c1.1-0.1,2-0.2,2-0.2c1-0.1,0.8-1.5-0.1-1.5c0,0-2.9,0.2-4.7,0.2c-0.3,0-0.7,0-1.1,0c3.2-4.8,8.6-8,14.9-8
			c4.6,0,8.8,1.8,12,4.7c-0.1,0-0.2,0-0.2,0c-1.7,0-3,1.5-3,3.2c0,1.5,0.8,2.7,1.7,4.2c0.7,1.2,1.5,2.7,1.5,4.9
			c0,1.5-0.6,3.3-1.4,5.7l-1.8,5.9L24.9,13z M31.4,36.7L36.8,21c1-2.5,1.4-4.6,1.4-6.4c0-0.7,0-1.3-0.1-1.8c1.4,2.5,2.2,5.4,2.2,8.5
			C40.2,27.9,36.6,33.6,31.4,36.7z"/>
	</g>
</g>
</svg>
