<?xml version="1.0" encoding="utf-8"?>
<!-- Generator: Adobe Illustrator 18.1.1, SVG Export Plug-In . SVG Version: 6.00 Build 0)  -->
<svg version="1.1" id="Layer_1" xmlns="http://www.w3.org/2000/svg" xmlns:xlink="http://www.w3.org/1999/xlink" x="0px" y="0px"
	 viewBox="0 0 500 500" enable-background="new 0 0 500 500" xml:space="preserve">
<path fill="#FFFFFF" d="M402.4,166.7c13.5,24.7,21.3,53.1,21.3,83.3c0,64.1-34.7,120-86.4,150.1l53-153.4
	c9.9-24.7,13.2-44.6,13.2-62.2C403.6,178.1,403.2,172.2,402.4,166.7 M273.9,168.5c10.4-0.5,19.8-1.6,19.8-1.6
	c9.3-1.1,8.3-14.9-1.1-14.3c0,0-28.2,2.2-46.3,2.2c-17,0-45.7-2.2-45.7-2.2c-9.3-0.5-10.5,13.8-1.1,14.3c0,0,8.9,1.1,18.2,1.6
	l27,74.1l-38,114l-63.3-188.1c10.5-0.5,19.9-1.6,19.9-1.6c9.3-1.1,8.3-14.9-1.1-14.3c0,0-28.2,2.2-46.3,2.2c-3.3,0-7.1-0.1-11.2-0.3
	c31.1-46.9,84.5-78,145.2-78c45.2,0,86.4,17.2,117.3,45.6c-0.7-0.1-1.5-0.1-2.3-0.1c-17,0-29.2,14.8-29.2,30.8
	c0,14.3,8.3,26.5,17,40.7c6.6,11.6,14.3,26.5,14.3,47.9c0,14.8-5.7,32.1-13.3,56.1l-17.3,57.9L273.9,168.5L273.9,168.5z M250,423.7
	c-17,0-33.5-2.5-49.1-7.1L253,265.2l53.3,146.2c0.4,0.8,0.8,1.6,1.3,2.4C289.6,420.2,270.3,423.7,250,423.7 M76.3,250
	c0-25.2,5.4-49.1,15-70.7l82.8,227C116.3,378.2,76.3,318.8,76.3,250 M250,56.8C143.5,56.8,56.8,143.5,56.8,250
	S143.5,443.2,250,443.2S443.2,356.5,443.2,250S356.5,56.8,250,56.8"/>
</svg>
