<?xml version="1.0" encoding="utf-8"?>
<!-- Generator: Adobe Illustrator 18.1.1, SVG Export Plug-In . SVG Version: 6.00 Build 0)  -->
<svg version="1.1" xmlns="http://www.w3.org/2000/svg" xmlns:xlink="http://www.w3.org/1999/xlink" x="0px" y="0px"
	 viewBox="0 0 40.4 43.5" enable-background="new 0 0 40.4 43.5" xml:space="preserve">
<g id="Layer_2">
	<rect x="-749.3" y="-313.2" fill-rule="evenodd" clip-rule="evenodd" fill="#FFFFFF" width="908" height="789.7"/>
</g>
<g id="Capa_1">
	<g>
		<g>
			<path fill="#2D2D2D" d="M37,21.8c-0.4-1.8-1.9-3.2-3.7-3.4c-4.3-0.5-8.7-0.5-13-0.5c-4.3,0-8.7,0-13,0.5
				c-1.8,0.2-3.3,1.6-3.7,3.4C3,24.4,3,27.3,3,30c0,2.7,0,5.6,0.6,8.2C4,40,5.5,41.4,7.3,41.6c4.3,0.5,8.7,0.5,13,0.5
				c4.3,0,8.7,0,13-0.5c1.8-0.2,3.3-1.6,3.7-3.4c0.6-2.6,0.6-5.5,0.6-8.2C37.6,27.3,37.7,24.4,37,21.8z M12.9,23.8h-2.5v13.3H8V23.8
				H5.6v-2.2h7.3V23.8z M19.2,37.2h-2.1v-1.3c-0.8,1-1.6,1.4-2.4,1.4c-0.7,0-1.1-0.3-1.3-0.9c-0.1-0.4-0.2-0.9-0.2-1.7v-9.1h2.1v8.5
				c0,0.5,0,0.7,0,0.8c0.1,0.3,0.2,0.5,0.5,0.5c0.4,0,0.9-0.3,1.3-1v-8.8h2.1V37.2z M27.2,33.7c0,1.1-0.1,1.8-0.2,2.3
				c-0.3,0.9-0.8,1.3-1.7,1.3c-0.7,0-1.5-0.4-2.2-1.3v1.1H21V21.6h2.1v5.1c0.7-0.8,1.4-1.3,2.2-1.3c0.8,0,1.4,0.4,1.7,1.3
				c0.1,0.5,0.2,1.2,0.2,2.3V33.7z M35.1,31.8h-4.2v2.1c0,1.1,0.4,1.6,1.1,1.6c0.5,0,0.8-0.3,0.9-0.8c0-0.1,0-0.6,0-1.4h2.1v0.3
				c0,0.7,0,1.1,0,1.4c-0.1,0.5-0.2,0.9-0.5,1.3c-0.6,0.8-1.4,1.3-2.5,1.3c-1.1,0-1.9-0.4-2.5-1.2c-0.4-0.6-0.7-1.5-0.7-2.7v-4.1
				c0-1.2,0.2-2.1,0.6-2.7c0.6-0.8,1.4-1.2,2.5-1.2c1.1,0,1.9,0.4,2.5,1.2c0.4,0.6,0.6,1.5,0.6,2.7V31.8z"/>
			<path fill="#2D2D2D" d="M31.9,27.3c-0.7,0-1.1,0.5-1.1,1.6V30H33v-1.1C33,27.9,32.6,27.3,31.9,27.3z"/>
			<path fill="#2D2D2D" d="M24.1,27.3c-0.3,0-0.7,0.2-1,0.5v7.1c0.4,0.4,0.7,0.5,1,0.5c0.6,0,0.9-0.5,0.9-1.6v-4.9
				C25.1,27.9,24.8,27.3,24.1,27.3z"/>
			<path fill="#2D2D2D" d="M25.3,16.8c0.8,0,1.6-0.5,2.4-1.4v1.3h2.1V5h-2.1v8.9c-0.5,0.7-0.9,1-1.3,1c-0.3,0-0.5-0.2-0.5-0.5
				c0-0.1,0-0.3,0-0.8V5h-2.1v9.2c0,0.8,0.1,1.4,0.2,1.7C24.2,16.5,24.6,16.8,25.3,16.8z"/>
			<path fill="#2D2D2D" d="M10.6,10.3v6.4h2.3v-6.4L15.7,1h-2.4l-1.6,6.2L10.1,1H7.6c0.5,1.5,1,2.9,1.5,4.4
				C9.9,7.5,10.4,9.2,10.6,10.3z"/>
			<path fill="#2D2D2D" d="M18.9,16.8c1.1,0,1.9-0.4,2.5-1.2c0.4-0.6,0.7-1.5,0.7-2.7V8.8c0-1.2-0.2-2.2-0.7-2.8
				c-0.6-0.8-1.4-1.2-2.5-1.2c-1.1,0-1.9,0.4-2.5,1.2c-0.5,0.6-0.7,1.5-0.7,2.8v4.1c0,1.2,0.2,2.2,0.7,2.7
				C17,16.4,17.8,16.8,18.9,16.8z M17.9,8.4c0-1.1,0.3-1.6,1-1.6s1,0.5,1,1.6v4.9c0,1.1-0.3,1.6-1,1.6s-1-0.5-1-1.6V8.4z"/>
		</g>
	</g>
</g>
</svg>
