<?xml version="1.0" encoding="utf-8"?>
<!-- Generator: Adobe Illustrator 18.1.1, SVG Export Plug-In . SVG Version: 6.00 Build 0)  -->
<svg version="1.1" id="Layer_1" xmlns="http://www.w3.org/2000/svg" xmlns:xlink="http://www.w3.org/1999/xlink" x="0px" y="0px"
	 viewBox="0 0 612 792" enable-background="new 0 0 612 792" xml:space="preserve">
<path d="M605.9,271.9c0,0-6-42.1-24.3-60.7c-23.3-24.4-49.3-24.5-61.3-25.9c-85.6-6.2-214.2-6.3-214.2-6.3s-159.1,1.4-208.1,6.1
	c-13.6,2.6-44.2,1.8-67.5,26.2c-18.4,18.6-24.3,60.7-24.3,60.7S0,321.5,0,371v48.2c0,49.5,6.1,99.1,6.1,99.1s6,42.1,24.3,60.7
	c23.3,24.4,53.8,23.6,67.5,26.2c49,4.7,208.1,6.1,208.1,6.1s128.6-0.2,214.2-6.3c12-1.5,38.1-1.5,61.3-25.9
	c18.4-18.6,24.3-60.7,24.3-60.7s6.1-49.5,6.1-99.1V371C612,321.4,605.9,271.9,605.9,271.9z M242.9,475.4h-0.1V303.4l165.4,86.3
	L242.9,475.4z"/>
</svg>
