<?xml version="1.0" encoding="utf-8"?>
<!-- Generator: Adobe Illustrator 18.1.1, SVG Export Plug-In . SVG Version: 6.00 Build 0)  -->
<svg version="1.1" id="Layer_1" xmlns="http://www.w3.org/2000/svg" xmlns:xlink="http://www.w3.org/1999/xlink" x="0px" y="0px"
	 viewBox="0 0 500 500" enable-background="new 0 0 500 500" xml:space="preserve">
<path fill="#FFFFFF" d="M439.3,171.7c0,0-3.8-26.6-15.3-38.3c-14.7-15.4-31.1-15.5-38.7-16.4c-54-3.9-135.2-4-135.2-4
	s-100.4,0.9-131.4,3.9c-8.6,1.6-27.9,1.1-42.6,16.5c-11.6,11.7-15.3,38.3-15.3,38.3s-3.9,31.3-3.9,62.5v30.4
	c0,31.3,3.9,62.6,3.9,62.6s3.8,26.6,15.3,38.3c14.7,15.4,34,14.9,42.6,16.5c30.9,3,131.4,3.9,131.4,3.9s81.2-0.1,135.2-4
	c7.6-0.9,24.1-0.9,38.7-16.4c11.6-11.7,15.3-38.3,15.3-38.3s3.9-31.3,3.9-62.6v-30.5C443.2,202.9,439.3,171.7,439.3,171.7z
	 M210.2,300.1L210.2,300.1l-0.1-108.6L314.5,246L210.2,300.1z"/>
</svg>
